<?xml version="1.0" encoding="UTF-8"?>
<!DOCTYPE svg PUBLIC "-//W3C//DTD SVG 1.1//EN" "http://www.w3.org/Graphics/SVG/1.1/DTD/svg11.dtd">
<!-- Creator: CorelDRAW X8 -->
<svg xmlns="http://www.w3.org/2000/svg" xml:space="preserve" width="3543px" height="531px" version="1.1" style="shape-rendering:geometricPrecision; text-rendering:geometricPrecision; image-rendering:optimizeQuality; fill-rule:evenodd; clip-rule:evenodd"
viewBox="0 0 3543 531"
 xmlns:xlink="http://www.w3.org/1999/xlink">
 <defs>
  <style type="text/css">
   <![CDATA[
    .str0 {stroke:#1ABC9C;stroke-width:1.00031}
    .str1 {stroke:#656565;stroke-width:1.00031}
    .fil2 {fill:none}
    .fil0 {fill:#1ABC9C}
    .fil1 {fill:#3FB9A4}
    .fil4 {fill:#3FB9A4}
    .fil5 {fill:#4D4D4D}
    .fil3 {fill:#656565}
   ]]>
  </style>
 </defs>
 <g id="Layer_x0020_1">
  <metadata id="CorelCorpID_0Corel-Layer"/>
  <g id="_2452273252176">
   <g>
    <path class="fil0" d="M2128 420l-1 -37c1,0 2,0 4,0 8,0 16,-2 23,-4 6,-3 12,-6 16,-11 5,-4 8,-10 10,-15 2,-6 3,-12 3,-19 0,-8 -2,-15 -5,-20 -4,-6 -9,-10 -16,-14 -6,-4 -13,-7 -21,-10 -5,-2 -11,-4 -16,-6l-1 -49c3,1 7,2 10,4 8,3 17,6 25,9 8,3 17,7 25,10 8,4 15,9 21,15 6,6 11,13 15,21 4,9 6,19 6,31 0,14 -2,26 -6,38 -5,11 -11,21 -19,30 -9,8 -19,15 -31,20 -12,5 -26,7 -42,7zm-6 -263l-1 -40c6,-1 13,-2 20,-2 17,0 32,3 46,9 13,7 25,15 35,26l-11 19c-2,4 -5,6 -9,6 -3,0 -6,-1 -9,-3 -3,-2 -7,-5 -12,-7 -4,-3 -10,-5 -16,-8 -7,-2 -14,-3 -23,-3 -8,0 -14,1 -20,3zm239 263c-20,0 -36,-6 -47,-20 -11,-13 -16,-31 -16,-56l0 -181 -32 0c-2,0 -5,-1 -6,-2 -2,-2 -3,-5 -3,-9l0 -21 42 -6 11 -91c0,-3 1,-5 3,-7 2,-2 4,-3 7,-3l23 0 0 102 75 0 0 37 -75 0 0 178c0,12 3,21 8,27 5,6 12,9 20,9 5,0 9,0 13,-2 3,-1 6,-3 9,-5 2,-1 4,-3 6,-4 2,-2 4,-3 5,-3 2,0 4,2 6,5l14 25c-8,9 -18,15 -29,20 -11,5 -22,7 -34,7zm244 -138c-21,1 -39,3 -54,6 -14,3 -26,7 -36,12 -9,5 -16,10 -20,17 -4,7 -6,14 -6,22 0,8 1,15 3,20 2,6 6,11 9,14 4,4 9,6 14,8 5,2 11,3 17,3 8,0 15,-1 21,-3 7,-2 13,-5 19,-8 6,-4 12,-8 17,-13 5,-5 11,-10 16,-16l0 -62zm-147 -120c14,-16 30,-28 46,-36 17,-7 35,-11 55,-11 15,0 27,2 39,8 11,5 20,13 28,23 8,9 13,21 17,35 4,14 6,29 6,45l0 189 -20 0c-4,0 -8,-1 -10,-2 -3,-2 -4,-5 -6,-10l-5 -28c-7,7 -13,14 -20,19 -6,6 -13,10 -20,14 -7,4 -15,7 -23,9 -8,2 -17,3 -27,3 -10,0 -19,-2 -28,-5 -9,-3 -17,-8 -23,-14 -7,-7 -12,-15 -16,-25 -4,-9 -6,-21 -6,-34 0,-12 3,-23 9,-34 5,-11 14,-20 27,-29 13,-8 29,-15 49,-20 20,-6 45,-9 75,-10l0 -23c0,-23 -5,-40 -13,-52 -9,-11 -22,-17 -38,-17 -11,0 -21,1 -28,5 -8,3 -15,6 -20,10 -6,4 -10,8 -14,11 -4,3 -8,5 -12,5 -3,0 -6,-1 -8,-3 -2,-2 -4,-4 -6,-7l-8 -16zm497 253l-46 0 0 -252 -133 0 0 178c0,12 3,21 8,27 5,6 12,9 20,9 5,0 9,0 13,-2 3,-1 6,-3 9,-5 2,-1 5,-3 6,-4 2,-2 4,-3 5,-3 3,0 5,2 7,5l13 25c-8,9 -17,15 -29,20 -11,5 -22,7 -34,7 -20,0 -36,-6 -47,-20 -11,-13 -16,-31 -16,-56l0 -181 -31 0c-3,0 -5,-1 -7,-2 -2,-2 -3,-5 -3,-9l0 -21 42 -6 11 -91c0,-3 1,-5 3,-7 2,-2 4,-3 7,-3l23 0 0 102 179 0 0 289zm11 -390c0,5 -1,10 -3,14 -1,5 -4,9 -7,12 -3,3 -6,6 -10,8 -4,2 -8,3 -13,3 -4,0 -8,-1 -12,-3 -4,-2 -7,-5 -10,-8 -3,-3 -5,-7 -7,-12 -2,-4 -3,-9 -3,-14 0,-5 1,-10 3,-14 2,-5 4,-9 7,-12 3,-4 6,-6 10,-8 4,-2 8,-3 12,-3 5,0 9,1 13,3 4,2 7,4 10,8 3,3 6,7 7,12 2,4 3,9 3,14zm172 90c19,0 36,4 51,11 15,7 28,18 39,31 11,13 19,29 25,48 5,18 8,39 8,63 0,23 -3,44 -8,63 -6,18 -14,34 -25,47 -11,14 -24,24 -39,31 -15,7 -32,10 -51,10 -19,0 -36,-3 -51,-10 -15,-7 -28,-17 -39,-31 -11,-13 -19,-29 -25,-47 -5,-19 -8,-40 -8,-63 0,-24 3,-45 8,-63 6,-19 14,-35 25,-48 11,-13 24,-24 39,-31 15,-7 32,-11 51,-11zm0 264c26,0 45,-10 57,-29 13,-20 19,-47 19,-82 0,-35 -6,-63 -19,-82 -12,-20 -31,-30 -57,-30 -13,0 -24,3 -34,8 -9,5 -17,12 -24,22 -6,9 -11,21 -14,35 -3,14 -5,29 -5,47 0,35 7,62 19,82 13,19 32,29 58,29zm223 -216c6,-7 12,-14 18,-20 7,-6 13,-11 20,-15 7,-4 15,-7 23,-9 8,-3 16,-4 25,-4 14,0 27,3 38,8 11,6 20,13 27,23 7,10 12,22 16,36 4,13 6,29 6,45l0 188 -46 0 0 -188c0,-22 -4,-39 -13,-52 -9,-12 -23,-18 -41,-18 -13,0 -26,3 -38,11 -11,7 -22,17 -32,30l0 217 -45 0 0 -295 27 0c6,0 10,4 12,11l3 32z"/>
    <g>
     <path class="fil1" d="M2127 383c1,0 2,0 4,0 8,0 16,-2 23,-4 6,-3 12,-6 16,-11 5,-4 8,-10 10,-15 2,-6 3,-12 3,-19 0,-8 -2,-15 -5,-20 -4,-6 -9,-10 -16,-14 -6,-4 -13,-7 -21,-10 -5,-2 -11,-4 -16,-6l2 99zm-3 -148c3,1 7,2 10,4 8,3 17,6 25,9 8,3 17,7 25,10 8,4 15,9 21,15 6,6 11,13 15,21 4,9 6,19 6,31 0,14 -2,26 -6,38 -5,11 -11,21 -19,30 -9,8 -19,15 -31,20 -12,5 -26,7 -42,7l-4 -185zm-3 -118c6,-1 13,-2 20,-2 17,0 32,3 46,9 13,7 25,15 35,26l-11 19c-2,4 -5,6 -9,6 -3,0 -6,-1 -9,-3 -3,-2 -7,-5 -12,-7 -4,-3 -10,-5 -16,-8 -7,-2 -14,-3 -23,-3 -8,0 -14,1 -20,3l-1 -40zm240 303c-20,0 -36,-6 -47,-20 -11,-13 -16,-31 -16,-56l0 -181 -32 0c-2,0 -5,-1 -6,-2 -2,-2 -3,-5 -3,-9l0 -21 42 -6 11 -91c0,-3 1,-5 3,-7 2,-2 4,-3 7,-3l23 0 0 102 75 0 0 37 -75 0 0 178c0,12 3,21 8,27 5,6 12,9 20,9 5,0 9,0 13,-2 3,-1 6,-3 9,-5 2,-1 4,-3 6,-4 2,-2 4,-3 5,-3 2,0 4,2 6,5l14 25c-8,9 -18,15 -29,20 -11,5 -22,7 -34,7zm244 -138c-21,1 -39,3 -54,6 -14,3 -26,7 -36,12 -9,5 -16,10 -20,17 -4,7 -6,14 -6,22 0,8 1,15 3,20 2,6 6,11 9,14 4,4 9,6 14,8 5,2 11,3 17,3 8,0 15,-1 21,-3 7,-2 13,-5 19,-8 6,-4 12,-8 17,-13 5,-5 11,-10 16,-16l0 -62zm-147 -120c14,-16 30,-28 46,-36 17,-7 35,-11 55,-11 15,0 27,2 39,8 11,5 20,13 28,23 8,9 13,21 17,35 4,14 6,29 6,45l0 189 -20 0c-4,0 -8,-1 -10,-2 -3,-2 -4,-5 -6,-10l-5 -28c-7,7 -13,14 -20,19 -6,6 -13,10 -20,14 -7,4 -15,7 -23,9 -8,2 -17,3 -27,3 -10,0 -19,-2 -28,-5 -9,-3 -17,-8 -23,-14 -7,-7 -12,-15 -16,-25 -4,-9 -6,-21 -6,-34 0,-12 3,-23 9,-34 5,-11 14,-20 27,-29 13,-8 29,-15 49,-20 20,-6 45,-9 75,-10l0 -23c0,-23 -5,-40 -13,-52 -9,-11 -22,-17 -38,-17 -11,0 -21,1 -28,5 -8,3 -15,6 -20,10 -6,4 -10,8 -14,11 -4,3 -8,5 -12,5 -3,0 -6,-1 -8,-3 -2,-2 -4,-4 -6,-7l-8 -16zm497 253l-46 0 0 -252 -133 0 0 178c0,12 3,21 8,27 5,6 12,9 20,9 5,0 9,0 13,-2 3,-1 6,-3 9,-5 2,-1 5,-3 6,-4 2,-2 4,-3 5,-3 3,0 5,2 7,5l13 25c-8,9 -17,15 -29,20 -11,5 -22,7 -34,7 -20,0 -36,-6 -47,-20 -11,-13 -16,-31 -16,-56l0 -181 -31 0c-3,0 -5,-1 -7,-2 -2,-2 -3,-5 -3,-9l0 -21 42 -6 11 -91c0,-3 1,-5 3,-7 2,-2 4,-3 7,-3l23 0 0 102 179 0 0 289zm11 -390c0,5 -1,10 -3,14 -1,5 -4,9 -7,12 -3,3 -6,6 -10,8 -4,2 -8,3 -13,3 -4,0 -8,-1 -12,-3 -4,-2 -7,-5 -10,-8 -3,-3 -5,-7 -7,-12 -2,-4 -3,-9 -3,-14 0,-5 1,-10 3,-14 2,-5 4,-9 7,-12 3,-4 6,-6 10,-8 4,-2 8,-3 12,-3 5,0 9,1 13,3 4,2 7,4 10,8 3,3 6,7 7,12 2,4 3,9 3,14zm172 90c19,0 36,4 51,11 15,7 28,18 39,31 11,13 19,29 25,48 5,18 8,39 8,63 0,23 -3,44 -8,63 -6,18 -14,34 -25,47 -11,14 -24,24 -39,31 -15,7 -32,10 -51,10 -19,0 -36,-3 -51,-10 -15,-7 -28,-17 -39,-31 -11,-13 -19,-29 -25,-47 -5,-19 -8,-40 -8,-63 0,-24 3,-45 8,-63 6,-19 14,-35 25,-48 11,-13 24,-24 39,-31 15,-7 32,-11 51,-11zm0 264c26,0 45,-10 57,-29 13,-20 19,-47 19,-82 0,-35 -6,-63 -19,-82 -12,-20 -31,-30 -57,-30 -13,0 -24,3 -34,8 -9,5 -17,12 -24,22 -6,9 -11,21 -14,35 -3,14 -5,29 -5,47 0,35 7,62 19,82 13,19 32,29 58,29zm223 -216c6,-7 12,-14 18,-20 7,-6 13,-11 20,-15 7,-4 15,-7 23,-9 8,-3 16,-4 25,-4 14,0 27,3 38,8 11,6 20,13 27,23 7,10 12,22 16,36 4,13 6,29 6,45l0 188 -46 0 0 -188c0,-22 -4,-39 -13,-52 -9,-12 -23,-18 -41,-18 -13,0 -26,3 -38,11 -11,7 -22,17 -32,30l0 217 -45 0 0 -295 27 0c6,0 10,4 12,11l3 32z"/>
     <path id="1" class="fil2 str0" d="M2127 383c1,0 2,0 4,0 8,0 16,-2 23,-4 6,-3 12,-6 16,-11 5,-4 8,-10 10,-15 2,-6 3,-12 3,-19 0,-8 -2,-15 -5,-20 -4,-6 -9,-10 -16,-14 -6,-4 -13,-7 -21,-10 -5,-2 -11,-4 -16,-6m-1 -49c3,1 7,2 10,4 8,3 17,6 25,9 8,3 17,7 25,10 8,4 15,9 21,15 6,6 11,13 15,21 4,9 6,19 6,31 0,14 -2,26 -6,38 -5,11 -11,21 -19,30 -9,8 -19,15 -31,20 -12,5 -26,7 -42,7m-7 -303c6,-1 13,-2 20,-2 17,0 32,3 46,9 13,7 25,15 35,26l-11 19c-2,4 -5,6 -9,6 -3,0 -6,-1 -9,-3 -3,-2 -7,-5 -12,-7 -4,-3 -10,-5 -16,-8 -7,-2 -14,-3 -23,-3 -8,0 -14,1 -20,3m239 263c-20,0 -36,-6 -47,-20 -11,-13 -16,-31 -16,-56l0 -181 -32 0c-2,0 -5,-1 -6,-2 -2,-2 -3,-5 -3,-9l0 -21 42 -6 11 -91c0,-3 1,-5 3,-7 2,-2 4,-3 7,-3l23 0 0 102 75 0 0 37 -75 0 0 178c0,12 3,21 8,27 5,6 12,9 20,9 5,0 9,0 13,-2 3,-1 6,-3 9,-5 2,-1 4,-3 6,-4 2,-2 4,-3 5,-3 2,0 4,2 6,5l14 25c-8,9 -18,15 -29,20 -11,5 -22,7 -34,7zm244 -138c-21,1 -39,3 -54,6 -14,3 -26,7 -36,12 -9,5 -16,10 -20,17 -4,7 -6,14 -6,22 0,8 1,15 3,20 2,6 6,11 9,14 4,4 9,6 14,8 5,2 11,3 17,3 8,0 15,-1 21,-3 7,-2 13,-5 19,-8 6,-4 12,-8 17,-13 5,-5 11,-10 16,-16l0 -62zm-147 -120c14,-16 30,-28 46,-36 17,-7 35,-11 55,-11 15,0 27,2 39,8 11,5 20,13 28,23 8,9 13,21 17,35 4,14 6,29 6,45l0 189 -20 0c-4,0 -8,-1 -10,-2 -3,-2 -4,-5 -6,-10l-5 -28c-7,7 -13,14 -20,19 -6,6 -13,10 -20,14 -7,4 -15,7 -23,9 -8,2 -17,3 -27,3 -10,0 -19,-2 -28,-5 -9,-3 -17,-8 -23,-14 -7,-7 -12,-15 -16,-25 -4,-9 -6,-21 -6,-34 0,-12 3,-23 9,-34 5,-11 14,-20 27,-29 13,-8 29,-15 49,-20 20,-6 45,-9 75,-10l0 -23c0,-23 -5,-40 -13,-52 -9,-11 -22,-17 -38,-17 -11,0 -21,1 -28,5 -8,3 -15,6 -20,10 -6,4 -10,8 -14,11 -4,3 -8,5 -12,5 -3,0 -6,-1 -8,-3 -2,-2 -4,-4 -6,-7l-8 -16zm497 253l-46 0 0 -252 -133 0 0 178c0,12 3,21 8,27 5,6 12,9 20,9 5,0 9,0 13,-2 3,-1 6,-3 9,-5 2,-1 5,-3 6,-4 2,-2 4,-3 5,-3 3,0 5,2 7,5l13 25c-8,9 -17,15 -29,20 -11,5 -22,7 -34,7 -20,0 -36,-6 -47,-20 -11,-13 -16,-31 -16,-56l0 -181 -31 0c-3,0 -5,-1 -7,-2 -2,-2 -3,-5 -3,-9l0 -21 42 -6 11 -91c0,-3 1,-5 3,-7 2,-2 4,-3 7,-3l23 0 0 102 179 0 0 289zm11 -390c0,5 -1,10 -3,14 -1,5 -4,9 -7,12 -3,3 -6,6 -10,8 -4,2 -8,3 -13,3 -4,0 -8,-1 -12,-3 -4,-2 -7,-5 -10,-8 -3,-3 -5,-7 -7,-12 -2,-4 -3,-9 -3,-14 0,-5 1,-10 3,-14 2,-5 4,-9 7,-12 3,-4 6,-6 10,-8 4,-2 8,-3 12,-3 5,0 9,1 13,3 4,2 7,4 10,8 3,3 6,7 7,12 2,4 3,9 3,14zm172 90c19,0 36,4 51,11 15,7 28,18 39,31 11,13 19,29 25,48 5,18 8,39 8,63 0,23 -3,44 -8,63 -6,18 -14,34 -25,47 -11,14 -24,24 -39,31 -15,7 -32,10 -51,10 -19,0 -36,-3 -51,-10 -15,-7 -28,-17 -39,-31 -11,-13 -19,-29 -25,-47 -5,-19 -8,-40 -8,-63 0,-24 3,-45 8,-63 6,-19 14,-35 25,-48 11,-13 24,-24 39,-31 15,-7 32,-11 51,-11zm0 264c26,0 45,-10 57,-29 13,-20 19,-47 19,-82 0,-35 -6,-63 -19,-82 -12,-20 -31,-30 -57,-30 -13,0 -24,3 -34,8 -9,5 -17,12 -24,22 -6,9 -11,21 -14,35 -3,14 -5,29 -5,47 0,35 7,62 19,82 13,19 32,29 58,29zm223 -216c6,-7 12,-14 18,-20 7,-6 13,-11 20,-15 7,-4 15,-7 23,-9 8,-3 16,-4 25,-4 14,0 27,3 38,8 11,6 20,13 27,23 7,10 12,22 16,36 4,13 6,29 6,45l0 188 -46 0 0 -188c0,-22 -4,-39 -13,-52 -9,-12 -23,-18 -41,-18 -13,0 -26,3 -38,11 -11,7 -22,17 -32,30l0 217 -45 0 0 -295 27 0c6,0 10,4 12,11l3 32z"/>
    </g>
   </g>
   <g id="_2452273253776">
    <path class="fil3" d="M2128 420l-1 -37c-9,-1 -16,-2 -23,-4 -6,-3 -12,-6 -17,-9 -5,-4 -9,-7 -13,-9 -3,-3 -6,-5 -9,-5 -3,0 -6,1 -7,2 -2,2 -4,4 -5,6l-11 20c10,11 23,19 37,26 15,7 31,10 49,10zm-3 -136l-1 -49c-4,-2 -8,-4 -11,-6 -6,-4 -11,-8 -15,-13 -4,-5 -6,-11 -6,-19 0,-6 1,-12 3,-17 3,-5 6,-9 10,-13 5,-4 10,-7 16,-10 0,0 1,0 1,0l-1 -40c-7,1 -13,3 -19,5 -12,5 -21,11 -29,19 -8,8 -14,17 -18,28 -4,10 -6,21 -6,32 0,13 2,23 6,32 3,9 8,17 15,23 6,6 13,11 21,15 8,4 17,7 25,10 3,1 6,2 9,3zm-1372 -112c-1,3 -2,4 -4,5 -1,2 -3,2 -5,2 -3,0 -6,-1 -9,-4 -3,-2 -6,-5 -11,-7 -4,-3 -10,-6 -17,-9 -6,-2 -14,-3 -24,-3 -12,0 -24,2 -33,8 -10,5 -18,12 -25,22 -6,10 -11,21 -14,35 -4,14 -5,29 -5,47 0,17 1,33 5,47 3,14 9,26 15,35 7,10 15,17 24,22 9,5 19,7 31,7 11,0 20,-1 27,-4 7,-3 13,-7 18,-10 5,-4 9,-7 12,-10 3,-3 6,-5 9,-5 4,0 7,2 9,5l13 19c-6,8 -12,15 -20,20 -7,6 -14,11 -23,14 -8,4 -17,7 -26,9 -9,2 -18,2 -27,2 -16,0 -31,-3 -45,-10 -14,-7 -26,-16 -36,-29 -10,-13 -18,-29 -24,-48 -6,-19 -9,-40 -9,-64 0,-22 3,-43 8,-61 6,-19 13,-35 24,-49 10,-13 23,-24 38,-31 15,-8 32,-12 52,-12 18,0 34,4 48,10 13,7 26,17 36,29l-12 18zm204 110c-21,1 -38,3 -53,6 -15,3 -27,7 -36,12 -9,5 -16,10 -20,17 -4,7 -7,14 -7,22 0,8 2,15 4,20 2,6 5,11 9,14 4,4 8,6 13,8 6,2 11,3 17,3 8,0 15,-1 22,-3 7,-2 13,-5 19,-8 6,-4 11,-8 17,-13 5,-5 10,-10 15,-16l0 -62zm-146 -120c14,-16 29,-28 46,-36 16,-7 35,-11 55,-11 14,0 27,2 38,8 11,5 21,13 28,23 8,9 14,21 18,35 4,14 6,29 6,45l0 189 -20 0c-5,0 -8,-1 -11,-2 -2,-2 -4,-5 -5,-10l-5 -28c-7,7 -14,14 -20,19 -7,6 -14,10 -21,14 -7,4 -14,7 -22,9 -9,2 -18,3 -27,3 -10,0 -20,-2 -29,-5 -9,-3 -16,-8 -23,-14 -6,-7 -12,-15 -15,-25 -4,-9 -6,-21 -6,-34 0,-12 3,-23 8,-34 6,-11 15,-20 28,-29 12,-8 29,-15 49,-20 20,-6 45,-9 74,-10l0 -23c0,-23 -4,-40 -13,-52 -8,-11 -21,-17 -38,-17 -11,0 -20,1 -28,5 -7,3 -14,6 -20,10 -5,4 -10,8 -14,11 -4,3 -8,5 -12,5 -3,0 -5,-1 -8,-3 -2,-2 -4,-4 -5,-7l-8 -16zm260 253l0 -295 27 0c7,0 11,4 12,11l3 30c10,-13 21,-24 33,-33 11,-8 25,-13 41,-13 17,0 31,6 42,17 11,11 19,26 23,45 4,-11 9,-20 15,-28 6,-8 12,-14 20,-19 7,-5 15,-9 23,-11 8,-2 17,-4 25,-4 14,0 26,3 36,8 11,5 20,12 28,22 7,9 13,21 16,35 4,13 6,29 6,47l0 188 -45 0 0 -188c0,-23 -5,-40 -14,-52 -8,-12 -21,-18 -38,-18 -7,0 -14,1 -21,4 -7,3 -13,8 -18,14 -5,5 -9,13 -12,21 -3,9 -4,20 -4,31l0 188 -46 0 0 -188c0,-23 -4,-41 -13,-53 -8,-11 -20,-17 -36,-17 -11,0 -22,3 -31,10 -10,7 -19,16 -27,28l0 220 -45 0zm465 -71c8,13 18,22 27,27 10,6 21,8 34,8 24,0 42,-10 55,-29 13,-20 20,-48 20,-84 0,-19 -2,-36 -5,-50 -3,-14 -7,-25 -13,-34 -5,-9 -12,-15 -20,-19 -9,-4 -18,-6 -28,-6 -15,0 -28,4 -39,11 -11,8 -22,19 -31,33l0 143zm-2 -178c11,-16 23,-28 38,-37 14,-10 30,-14 49,-14 15,0 28,3 40,9 12,7 22,17 31,29 8,13 15,29 20,48 4,19 7,40 7,65 0,22 -3,42 -8,61 -5,18 -13,35 -22,48 -10,14 -21,25 -35,33 -14,7 -30,11 -47,11 -16,0 -30,-3 -41,-9 -11,-6 -21,-14 -30,-25l0 130 -46 0 0 -395 28 0c6,0 10,4 12,11l4 35zm455 -46l0 295 -27 0c-7,0 -11,-3 -12,-10l-4 -32c-11,14 -24,25 -38,34 -14,9 -30,13 -48,13 -14,0 -26,-3 -37,-8 -11,-5 -20,-13 -27,-23 -7,-9 -13,-21 -17,-35 -3,-14 -5,-29 -5,-46l0 -188 45 0 0 188c0,23 5,40 14,52 9,12 22,19 41,19 13,0 26,-4 37,-11 12,-8 23,-18 33,-31l0 -217 45 0z"/>
    <g>
     <path class="fil3" d="M2127 383c-9,-1 -16,-2 -23,-4 -6,-3 -12,-6 -17,-9 -5,-4 -9,-7 -13,-9 -3,-3 -6,-5 -9,-5 -3,0 -6,1 -7,2 -2,2 -4,4 -5,6l-11 20c10,11 23,19 37,26 15,7 31,10 49,10l-1 -37zm-3 -148c-4,-2 -8,-4 -11,-6 -6,-4 -11,-8 -15,-13 -4,-5 -6,-11 -6,-19 0,-6 1,-12 3,-17 3,-5 6,-9 10,-13 5,-4 10,-7 16,-10 0,0 1,0 1,0l2 78zm-3 -118c-7,1 -13,3 -19,5 -12,5 -21,11 -29,19 -8,8 -14,17 -18,28 -4,10 -6,21 -6,32 0,13 2,23 6,32 3,9 8,17 15,23 6,6 13,11 21,15 8,4 17,7 25,10 3,1 6,2 9,3l-4 -167zm-1368 55c-1,3 -2,4 -4,5 -1,2 -3,2 -5,2 -3,0 -6,-1 -9,-4 -3,-2 -6,-5 -11,-7 -4,-3 -10,-6 -17,-9 -6,-2 -14,-3 -24,-3 -12,0 -24,2 -33,8 -10,5 -18,12 -25,22 -6,10 -11,21 -14,35 -4,14 -5,29 -5,47 0,17 1,33 5,47 3,14 9,26 15,35 7,10 15,17 24,22 9,5 19,7 31,7 11,0 20,-1 27,-4 7,-3 13,-7 18,-10 5,-4 9,-7 12,-10 3,-3 6,-5 9,-5 4,0 7,2 9,5l13 19c-6,8 -12,15 -20,20 -7,6 -14,11 -23,14 -8,4 -17,7 -26,9 -9,2 -18,2 -27,2 -16,0 -31,-3 -45,-10 -14,-7 -26,-16 -36,-29 -10,-13 -18,-29 -24,-48 -6,-19 -9,-40 -9,-64 0,-22 3,-43 8,-61 6,-19 13,-35 24,-49 10,-13 23,-24 38,-31 15,-8 32,-12 52,-12 18,0 34,4 48,10 13,7 26,17 36,29l-12 18zm204 110c-21,1 -38,3 -53,6 -15,3 -27,7 -36,12 -9,5 -16,10 -20,17 -4,7 -7,14 -7,22 0,8 2,15 4,20 2,6 5,11 9,14 4,4 8,6 13,8 6,2 11,3 17,3 8,0 15,-1 22,-3 7,-2 13,-5 19,-8 6,-4 11,-8 17,-13 5,-5 10,-10 15,-16l0 -62zm-146 -120c14,-16 29,-28 46,-36 16,-7 35,-11 55,-11 14,0 27,2 38,8 11,5 21,13 28,23 8,9 14,21 18,35 4,14 6,29 6,45l0 189 -20 0c-5,0 -8,-1 -11,-2 -2,-2 -4,-5 -5,-10l-5 -28c-7,7 -14,14 -20,19 -7,6 -14,10 -21,14 -7,4 -14,7 -22,9 -9,2 -18,3 -27,3 -10,0 -20,-2 -29,-5 -9,-3 -16,-8 -23,-14 -6,-7 -12,-15 -15,-25 -4,-9 -6,-21 -6,-34 0,-12 3,-23 8,-34 6,-11 15,-20 28,-29 12,-8 29,-15 49,-20 20,-6 45,-9 74,-10l0 -23c0,-23 -4,-40 -13,-52 -8,-11 -21,-17 -38,-17 -11,0 -20,1 -28,5 -7,3 -14,6 -20,10 -5,4 -10,8 -14,11 -4,3 -8,5 -12,5 -3,0 -5,-1 -8,-3 -2,-2 -4,-4 -5,-7l-8 -16zm260 253l0 -295 27 0c7,0 11,4 12,11l3 30c10,-13 21,-24 33,-33 11,-8 25,-13 41,-13 17,0 31,6 42,17 11,11 19,26 23,45 4,-11 9,-20 15,-28 6,-8 12,-14 20,-19 7,-5 15,-9 23,-11 8,-2 17,-4 25,-4 14,0 26,3 36,8 11,5 20,12 28,22 7,9 13,21 16,35 4,13 6,29 6,47l0 188 -45 0 0 -188c0,-23 -5,-40 -14,-52 -8,-12 -21,-18 -38,-18 -7,0 -14,1 -21,4 -7,3 -13,8 -18,14 -5,5 -9,13 -12,21 -3,9 -4,20 -4,31l0 188 -46 0 0 -188c0,-23 -4,-41 -13,-53 -8,-11 -20,-17 -36,-17 -11,0 -22,3 -31,10 -10,7 -19,16 -27,28l0 220 -45 0zm465 -71c8,13 18,22 27,27 10,6 21,8 34,8 24,0 42,-10 55,-29 13,-20 20,-48 20,-84 0,-19 -2,-36 -5,-50 -3,-14 -7,-25 -13,-34 -5,-9 -12,-15 -20,-19 -9,-4 -18,-6 -28,-6 -15,0 -28,4 -39,11 -11,8 -22,19 -31,33l0 143zm-2 -178c11,-16 23,-28 38,-37 14,-10 30,-14 49,-14 15,0 28,3 40,9 12,7 22,17 31,29 8,13 15,29 20,48 4,19 7,40 7,65 0,22 -3,42 -8,61 -5,18 -13,35 -22,48 -10,14 -21,25 -35,33 -14,7 -30,11 -47,11 -16,0 -30,-3 -41,-9 -11,-6 -21,-14 -30,-25l0 130 -46 0 0 -395 28 0c6,0 10,4 12,11l4 35zm455 -46l0 295 -27 0c-7,0 -11,-3 -12,-10l-4 -32c-11,14 -24,25 -38,34 -14,9 -30,13 -48,13 -14,0 -26,-3 -37,-8 -11,-5 -20,-13 -27,-23 -7,-9 -13,-21 -17,-35 -3,-14 -5,-29 -5,-46l0 -188 45 0 0 188c0,23 5,40 14,52 9,12 22,19 41,19 13,0 26,-4 37,-11 12,-8 23,-18 33,-31l0 -217 45 0z"/>
     <path id="1" class="fil2 str1" d="M2127 383c-9,-1 -16,-2 -23,-4 -6,-3 -12,-6 -17,-9 -5,-4 -9,-7 -13,-9 -3,-3 -6,-5 -9,-5 -3,0 -6,1 -7,2 -2,2 -4,4 -5,6l-11 20c10,11 23,19 37,26 15,7 31,10 49,10m-4 -185c-4,-2 -8,-4 -11,-6 -6,-4 -11,-8 -15,-13 -4,-5 -6,-11 -6,-19 0,-6 1,-12 3,-17 3,-5 6,-9 10,-13 5,-4 10,-7 16,-10 0,0 1,0 1,0m-1 -40c-7,1 -13,3 -19,5 -12,5 -21,11 -29,19 -8,8 -14,17 -18,28 -4,10 -6,21 -6,32 0,13 2,23 6,32 3,9 8,17 15,23 6,6 13,11 21,15 8,4 17,7 25,10 3,1 6,2 9,3m-1372 -112c-1,3 -2,4 -4,5 -1,2 -3,2 -5,2 -3,0 -6,-1 -9,-4 -3,-2 -6,-5 -11,-7 -4,-3 -10,-6 -17,-9 -6,-2 -14,-3 -24,-3 -12,0 -24,2 -33,8 -10,5 -18,12 -25,22 -6,10 -11,21 -14,35 -4,14 -5,29 -5,47 0,17 1,33 5,47 3,14 9,26 15,35 7,10 15,17 24,22 9,5 19,7 31,7 11,0 20,-1 27,-4 7,-3 13,-7 18,-10 5,-4 9,-7 12,-10 3,-3 6,-5 9,-5 4,0 7,2 9,5l13 19c-6,8 -12,15 -20,20 -7,6 -14,11 -23,14 -8,4 -17,7 -26,9 -9,2 -18,2 -27,2 -16,0 -31,-3 -45,-10 -14,-7 -26,-16 -36,-29 -10,-13 -18,-29 -24,-48 -6,-19 -9,-40 -9,-64 0,-22 3,-43 8,-61 6,-19 13,-35 24,-49 10,-13 23,-24 38,-31 15,-8 32,-12 52,-12 18,0 34,4 48,10 13,7 26,17 36,29l-12 18zm204 110c-21,1 -38,3 -53,6 -15,3 -27,7 -36,12 -9,5 -16,10 -20,17 -4,7 -7,14 -7,22 0,8 2,15 4,20 2,6 5,11 9,14 4,4 8,6 13,8 6,2 11,3 17,3 8,0 15,-1 22,-3 7,-2 13,-5 19,-8 6,-4 11,-8 17,-13 5,-5 10,-10 15,-16l0 -62zm-146 -120c14,-16 29,-28 46,-36 16,-7 35,-11 55,-11 14,0 27,2 38,8 11,5 21,13 28,23 8,9 14,21 18,35 4,14 6,29 6,45l0 189 -20 0c-5,0 -8,-1 -11,-2 -2,-2 -4,-5 -5,-10l-5 -28c-7,7 -14,14 -20,19 -7,6 -14,10 -21,14 -7,4 -14,7 -22,9 -9,2 -18,3 -27,3 -10,0 -20,-2 -29,-5 -9,-3 -16,-8 -23,-14 -6,-7 -12,-15 -15,-25 -4,-9 -6,-21 -6,-34 0,-12 3,-23 8,-34 6,-11 15,-20 28,-29 12,-8 29,-15 49,-20 20,-6 45,-9 74,-10l0 -23c0,-23 -4,-40 -13,-52 -8,-11 -21,-17 -38,-17 -11,0 -20,1 -28,5 -7,3 -14,6 -20,10 -5,4 -10,8 -14,11 -4,3 -8,5 -12,5 -3,0 -5,-1 -8,-3 -2,-2 -4,-4 -5,-7l-8 -16zm260 253l0 -295 27 0c7,0 11,4 12,11l3 30c10,-13 21,-24 33,-33 11,-8 25,-13 41,-13 17,0 31,6 42,17 11,11 19,26 23,45 4,-11 9,-20 15,-28 6,-8 12,-14 20,-19 7,-5 15,-9 23,-11 8,-2 17,-4 25,-4 14,0 26,3 36,8 11,5 20,12 28,22 7,9 13,21 16,35 4,13 6,29 6,47l0 188 -45 0 0 -188c0,-23 -5,-40 -14,-52 -8,-12 -21,-18 -38,-18 -7,0 -14,1 -21,4 -7,3 -13,8 -18,14 -5,5 -9,13 -12,21 -3,9 -4,20 -4,31l0 188 -46 0 0 -188c0,-23 -4,-41 -13,-53 -8,-11 -20,-17 -36,-17 -11,0 -22,3 -31,10 -10,7 -19,16 -27,28l0 220 -45 0zm465 -71c8,13 18,22 27,27 10,6 21,8 34,8 24,0 42,-10 55,-29 13,-20 20,-48 20,-84 0,-19 -2,-36 -5,-50 -3,-14 -7,-25 -13,-34 -5,-9 -12,-15 -20,-19 -9,-4 -18,-6 -28,-6 -15,0 -28,4 -39,11 -11,8 -22,19 -31,33l0 143zm-2 -178c11,-16 23,-28 38,-37 14,-10 30,-14 49,-14 15,0 28,3 40,9 12,7 22,17 31,29 8,13 15,29 20,48 4,19 7,40 7,65 0,22 -3,42 -8,61 -5,18 -13,35 -22,48 -10,14 -21,25 -35,33 -14,7 -30,11 -47,11 -16,0 -30,-3 -41,-9 -11,-6 -21,-14 -30,-25l0 130 -46 0 0 -395 28 0c6,0 10,4 12,11l4 35zm455 -46l0 295 -27 0c-7,0 -11,-3 -12,-10l-4 -32c-11,14 -24,25 -38,34 -14,9 -30,13 -48,13 -14,0 -26,-3 -37,-8 -11,-5 -20,-13 -27,-23 -7,-9 -13,-21 -17,-35 -3,-14 -5,-29 -5,-46l0 -188 45 0 0 188c0,23 5,40 14,52 9,12 22,19 41,19 13,0 26,-4 37,-11 12,-8 23,-18 33,-31l0 -217 45 0z"/>
    </g>
   </g>
   <g>
    <g id="_2452273253968">
     <path class="fil4" d="M165 366l1 -1 0 1 -1 0zm85 -80l2 -2 0 2 -2 0zm85 -80l2 -2 0 2 -2 0zm85 -80l1 -1 0 1 -1 0zm85 2l0 318 -339 0 0 -79 86 0 0 -80 86 0 0 -80 86 0 0 -79 81 0z"/>
     <polyline class="fil2" points="505,128 505,446 166,446 "/>
    </g>
    <g id="_2452273250352">
     <path class="fil5" d="M81 447l0 0 0 0 0 0zm255 -241l1 -1 0 -79 84 0 0 0 0 -75 -340 0 0 315 85 0 0 -80 86 0 0 -80 84 0z"/>
     <path class="fil2" d="M421 51l-340 0 0 315m0 81l0 0"/>
    </g>
   </g>
  </g>
 </g>
</svg>
